<svg version="1.1" id="Layer_1" xmlns="http://www.w3.org/2000/svg" xmlns:xlink="http://www.w3.org/1999/xlink" x="0px" y="0px" viewBox="38.7 147.6 107.8 107.8" style="enable-background:new 38.7 147.6 107.8 107.8;" xml:space="preserve">
 <style type="text/css">
  .st0{fill:#000033;}
	.st1{fill:#CC0000;}
 </style>
 <g>
  <g>
   <polygon class="st0" points="126.7,193.4 100.8,193.4 92.8,168.8 84.8,193.4 58.9,193.4 79.8,208.7 71.8,233.3 92.8,218.1 
			113.8,233.3 105.8,208.7 		">
   </polygon>
  </g>
  <path class="st1" d="M92.5,152c13.3,0,25.8,5.1,35.2,14.5c9.4,9.3,14.5,21.8,14.5,35.1c0,13.3-5.1,25.7-14.5,35
		c-9.3,9.3-21.8,14.4-35.1,14.4s-25.8-5.2-35.1-14.5c-9.3-9.3-14.4-21.8-14.4-35.2C43.1,174.1,65.2,152,92.5,152L92.5,152
		 M92.4,147.6L92.4,147.6c-29.5,0-53.7,24.2-53.7,53.7c0,30.1,23.9,54,53.9,54.1l0,0c29.8,0,53.8-24,53.9-53.8
		C146.5,171.7,122.4,147.6,92.4,147.6L92.4,147.6z">
  </path>
 </g>
</svg>